# xmcd
#
# Track frame offsets:
#	150
#	15625
#	29357
#	46024
#	55240
#	71175
#	84403
#	94461
#	107552
#	123583
#	135118
#	148555
#	159876
#	173187
#	183142
#	200026
#	211514
#	230540
#
# Disc length: 3278 seconds
#
# Revision: 0
# Processed by: cddbd v1.5.2PL0 Copyright (c) Steve Scherf et al.
# Submitted via: EZCDAudioConverter 2.1.5.1
#
DISCID=eb0ccc12
DTITLE=Vaious - Pentti Viherluodon Suosittuja Iskusäveliä - Laitakadun Hämäräs
DTITLE=sä
DYEAR=2005
DGENRE=
TTITLE0=Miljoonasade - Savolainen Fakiiri 
TTITLE1=Tero-Petri Suovanen and Sohon Torwet - Portsan Poikain Laulu
TTITLE2=Jussu Pöyhönen - Kaukainen Ystäväni
TTITLE3=Eläkeläiset - Langinkosken Laulu
TTITLE4=Pauli Hanhiniemi -  Laitakadun Hämärässä 
TTITLE5=Tommi Läntinen, Baba Salama and Juhiksen Kvartetti -  Ruusuja Lurjukselt
TTITLE5=a 
TTITLE6=Niina Sinkkonen and Nylon 66’Ers - Ku Alpertti Meni Laivan Pääl
TTITLE7=Juha Lehti and Juhiksen Kvartetti - Musta Ruusu
TTITLE8=Kupittaa - Kaipailen Lemmittyni Luo
TTITLE9=Helge Kontio Populär - Punaiset Lehdet
TTITLE10=Nekku Nevala - Turun Surusilmä
TTITLE11=Vilperin Perikunta - Puhelinlangat Laulaa
TTITLE12=Sig - Tuntematon Armas
TTITLE13=Tuula Amberla - Illan Varjot Tummuu
TTITLE14=M.A. Numminen and Universumin Kamarisolistit - Vår Lilla Stig (Pieni Po
TTITLE14=lku)
TTITLE15=Arja Heiska and Fispeli - Annansilmä
TTITLE16=Severi Pyysalo Trio and Juhiksen Kvartetti - Aamu Airistolla
TTITLE17=Niilo Rantala, 9 V - Portsan Poikain Laulu
EXTD=
EXTT0=
EXTT1=
EXTT2=
EXTT3=
EXTT4=
EXTT5=
EXTT6=
EXTT7=
EXTT8=
EXTT9=
EXTT10=
EXTT11=
EXTT12=
EXTT13=
EXTT14=
EXTT15=
EXTT16=
EXTT17=
PLAYORDER=
